<svg width="116" height="115" viewBox="0 0 116 115" fill="none" xmlns="http://www.w3.org/2000/svg">
<path d="M48 79H38C37.337 79 36.7011 78.7366 36.2322 78.2678C35.7634 77.7989 35.5 77.163 35.5 76.5V66.5C35.5 65.837 35.2366 65.2011 34.7678 64.7322C34.2989 64.2634 33.663 64 33 64C32.337 64 31.7011 64.2634 31.2322 64.7322C30.7634 65.2011 30.5 65.837 30.5 66.5V76.5C30.5 78.4891 31.2902 80.3968 32.6967 81.8033C34.1032 83.2098 36.0109 84 38 84H48C48.663 84 49.2989 83.7366 49.7678 83.2678C50.2366 82.7989 50.5 82.163 50.5 81.5C50.5 80.837 50.2366 80.2011 49.7678 79.7322C49.2989 79.2634 48.663 79 48 79ZM83 64C82.337 64 81.7011 64.2634 81.2322 64.7322C80.7634 65.2011 80.5 65.837 80.5 66.5V76.5C80.5 77.163 80.2366 77.7989 79.7678 78.2678C79.2989 78.7366 78.663 79 78 79H68C67.337 79 66.7011 79.2634 66.2322 79.7322C65.7634 80.2011 65.5 80.837 65.5 81.5C65.5 82.163 65.7634 82.7989 66.2322 83.2678C66.7011 83.7366 67.337 84 68 84H78C79.9891 84 81.8968 83.2098 83.3033 81.8033C84.7098 80.3968 85.5 78.4891 85.5 76.5V66.5C85.5 65.837 85.2366 65.2011 84.7678 64.7322C84.2989 64.2634 83.663 64 83 64ZM78 29H68C67.337 29 66.7011 29.2634 66.2322 29.7322C65.7634 30.2011 65.5 30.837 65.5 31.5C65.5 32.163 65.7634 32.7989 66.2322 33.2678C66.7011 33.7366 67.337 34 68 34H78C78.663 34 79.2989 34.2634 79.7678 34.7322C80.2366 35.2011 80.5 35.837 80.5 36.5V46.5C80.5 47.163 80.7634 47.7989 81.2322 48.2678C81.7011 48.7366 82.337 49 83 49C83.663 49 84.2989 48.7366 84.7678 48.2678C85.2366 47.7989 85.5 47.163 85.5 46.5V36.5C85.5 34.5109 84.7098 32.6032 83.3033 31.1967C81.8968 29.7902 79.9891 29 78 29ZM33 49C33.663 49 34.2989 48.7366 34.7678 48.2678C35.2366 47.7989 35.5 47.163 35.5 46.5V36.5C35.5 35.837 35.7634 35.2011 36.2322 34.7322C36.7011 34.2634 37.337 34 38 34H48C48.663 34 49.2989 33.7366 49.7678 33.2678C50.2366 32.7989 50.5 32.163 50.5 31.5C50.5 30.837 50.2366 30.2011 49.7678 29.7322C49.2989 29.2634 48.663 29 48 29H38C36.0109 29 34.1032 29.7902 32.6967 31.1967C31.2902 32.6032 30.5 34.5109 30.5 36.5V46.5C30.5 47.163 30.7634 47.7989 31.2322 48.2678C31.7011 48.7366 32.337 49 33 49ZM53 39H43C42.337 39 41.7011 39.2634 41.2322 39.7322C40.7634 40.2011 40.5 40.837 40.5 41.5V51.5C40.5 52.163 40.7634 52.7989 41.2322 53.2678C41.7011 53.7366 42.337 54 43 54H53C53.663 54 54.2989 53.7366 54.7678 53.2678C55.2366 52.7989 55.5 52.163 55.5 51.5V41.5C55.5 40.837 55.2366 40.2011 54.7678 39.7322C54.2989 39.2634 53.663 39 53 39ZM50.5 49H45.5V44H50.5V49ZM63 54H73C73.663 54 74.2989 53.7366 74.7678 53.2678C75.2366 52.7989 75.5 52.163 75.5 51.5V41.5C75.5 40.837 75.2366 40.2011 74.7678 39.7322C74.2989 39.2634 73.663 39 73 39H63C62.337 39 61.7011 39.2634 61.2322 39.7322C60.7634 40.2011 60.5 40.837 60.5 41.5V51.5C60.5 52.163 60.7634 52.7989 61.2322 53.2678C61.7011 53.7366 62.337 54 63 54ZM65.5 44H70.5V49H65.5V44ZM53 59H43C42.337 59 41.7011 59.2634 41.2322 59.7322C40.7634 60.2011 40.5 60.837 40.5 61.5V71.5C40.5 72.163 40.7634 72.7989 41.2322 73.2678C41.7011 73.7366 42.337 74 43 74H53C53.663 74 54.2989 73.7366 54.7678 73.2678C55.2366 72.7989 55.5 72.163 55.5 71.5V61.5C55.5 60.837 55.2366 60.2011 54.7678 59.7322C54.2989 59.2634 53.663 59 53 59ZM50.5 69H45.5V64H50.5V69ZM63 66.5C63.663 66.5 64.2989 66.2366 64.7678 65.7678C65.2366 65.2989 65.5 64.663 65.5 64C66.163 64 66.7989 63.7366 67.2678 63.2678C67.7366 62.7989 68 62.163 68 61.5C68 60.837 67.7366 60.2011 67.2678 59.7322C66.7989 59.2634 66.163 59 65.5 59H63C62.337 59 61.7011 59.2634 61.2322 59.7322C60.7634 60.2011 60.5 60.837 60.5 61.5V64C60.5 64.663 60.7634 65.2989 61.2322 65.7678C61.7011 66.2366 62.337 66.5 63 66.5ZM73 59C72.337 59 71.7011 59.2634 71.2322 59.7322C70.7634 60.2011 70.5 60.837 70.5 61.5V69C69.837 69 69.2011 69.2634 68.7322 69.7322C68.2634 70.2011 68 70.837 68 71.5C68 72.163 68.2634 72.7989 68.7322 73.2678C69.2011 73.7366 69.837 74 70.5 74H73C73.663 74 74.2989 73.7366 74.7678 73.2678C75.2366 72.7989 75.5 72.163 75.5 71.5V61.5C75.5 60.837 75.2366 60.2011 74.7678 59.7322C74.2989 59.2634 73.663 59 73 59ZM63 69C62.5055 69 62.0222 69.1466 61.6111 69.4213C61.2 69.696 60.8795 70.0865 60.6903 70.5433C60.5011 71.0001 60.4516 71.5028 60.548 71.9877C60.6445 72.4727 60.8826 72.9181 61.2322 73.2678C61.5819 73.6174 62.0273 73.8555 62.5123 73.952C62.9972 74.0484 63.4999 73.9989 63.9567 73.8097C64.4135 73.6205 64.804 73.3 65.0787 72.8889C65.3534 72.4778 65.5 71.9945 65.5 71.5C65.5 70.837 65.2366 70.2011 64.7678 69.7322C64.2989 69.2634 63.663 69 63 69Z" fill="#ED1C24"/>
<circle cx="57.9959" cy="57.4961" r="52" transform="rotate(175.543 57.9959 57.4961)" stroke="url(#paint0_linear_1256_152)" stroke-width="3"/>
<defs>
<linearGradient id="paint0_linear_1256_152" x1="57.9959" y1="3.9961" x2="57.9959" y2="110.996" gradientUnits="userSpaceOnUse">
<stop stop-color="#ED1C24"/>
<stop offset="0.505217" stop-color="white"/>
</linearGradient>
</defs>
</svg>
